<svg xmlns="http://www.w3.org/2000/svg" viewBox="6.2 4.3 113.3 248.1"><defs><style>.st31 {
        fill: #52c4c6;
      }
.st61 {
        fill: #57c5e5;
      }
.st82 {
        fill: #fff;
      }
.st90 {
        fill: #e64d4e;
      }
.st147 {
        stroke: #fff;
        stroke-linecap: square;
        stroke-linejoin: bevel;
        stroke-width: 3.3px;
      }
.st148 {
        fill: #c3a863;
      }
.st315 {
        fill: #4961b9;
      }</style></defs><g><g id="uuid-512463a1-a39b-4cd4-b1b7-5863078f5e4a">
      <path id="uuid-16768cdb-0eed-43f7-a431-c3b08590a7f4" class="st82" d="M106.4,89.9h-14.3c-.7,1-2.1,6.7-2.1,6.7-11.8,15.4-18.5,34.1-20,55.6,0,.9,0,1.7.3,2.5v5.8c-.4.9-.6,1.9-.6,2.9.2,16.6,3.4,34.7,9.4,53.9.7,2.2,2.5,3.9,4.7,4.5l1.1,2.2c-.3,1.5-.1,3.2.7,4.6l2.7,4.9c.3.5.6.9,1,1.4h-52.7c.4-.4.7-.9,1-1.4l2.7-4.9c.8-1.4,1-3.1.7-4.6l1.1-2.2c2.2-.6,4-2.3,4.7-4.5,6-19.2,9.1-37.4,9.4-53.9,0-1.2-.3-2.4-.9-3.4v-4.5c.5-1,.7-2.1.6-3.2-1.5-21.5-8.2-40.2-20-55.6l-2.7-6.7h-13.8c1.2,3.3,4,5.8,7.6,6.5,13.2,15.1,20.6,34,22.1,56.2h-.6v10.7h.9c-.2,15.9-3.3,33.4-9.1,52-1.7.2-3.1,1.1-3.8,2.6l-2.2,4.4c-.5,1-.5,2.1.1,3.1l-2.7,4.9c-1,.4-1.8,1.2-2.4,2.2l-4.6,9.1s9,6.7,38.2,6.7c29.2,0,38.2-6.7,38.2-6.7l-4.6-9.1c-.5-1-1.3-1.8-2.3-2.2l-2.7-4.9c.6-.9.6-2.1.1-3.1l-2.2-4.4c-.8-1.5-2.2-2.5-3.8-2.6-5.8-18.6-8.9-36.1-9.1-52h.6v-10.7h-.3c1.5-22.2,9-41.1,22.1-56.2,3.6-.7,6.4-3.2,7.6-6.5" />
    </g>
    <g id="uuid-863f3e88-665c-4736-b7a3-309e61e0c284">
      <path id="uuid-348ea59a-e4aa-468d-8fe9-a7d35607cdbf" class="st82" d="M71,55.1c0-.7.9-2,.9-2,.7-1.3.1-1.9.1-1.9,0,.3-.3.6-.3.6-.7.3-1.3.8-1.3.8-.1.5,0,.9,0,.9l-.4.4c0,.4,0,1.1,0,1.1.3.5,1,0,1,0" />
    </g>
    <g id="uuid-c3057065-7e5c-4e2d-bb71-96bb0a84aa37">
      <path id="uuid-8904f143-1e39-4637-958e-698d18b7c6b6" class="st82" d="M73.1,43.4c-.7.4-2.5.6-2.5.6-2.6-2.7-3.1-5.9-3.1-5.9-1,0-3.5-.4-3.5-.4-.3.2-.3.6-.3.6-.3,0-2.2-.7-2.2-.7,0-.6-.2-1.1-.2-1.1-1.7-.2-4.4.5-4.4.5,0,0-4.9,2.7-4.3,5.3s3,3.9,3,3.9c3.2-1,4.9,0,4.9,0,.3.9,0,1.6,0,1.6,1.1.8,1.5,3.2,1.5,3.2-.6.8-.6,1.7-.6,1.7.5,1.8,1.9,4.8,1.9,4.8l2.9-.3c2.6-2.8,2.2-3.9,2.2-3.9.9-.2,1.6-1.1,1.6-1.1-.5-1.8-.1-3.9-.1-3.9,4.1-3.6,3.4-4.8,3.4-4.8" />
    </g>
    <g id="uuid-ae7d33e6-9703-47c0-add3-fe77f72c4d13">
      <path id="uuid-25896cd4-a2be-4e4d-bcbf-20d1481a9a23" class="st82" d="M17.6,81.6c4.1,0,7.4-3.3,7.4-7.4s-3.3-7.3-7.4-7.3-7.4,3.3-7.4,7.3,3.3,7.4,7.4,7.4" />
    </g>
    <g id="uuid-eedda974-35a9-476a-8de0-709d8394c2b5">
      <path id="uuid-c75926ff-5d46-4eb2-b887-a3d29b63a8ed" class="st82" d="M100.8,74.3c0,4.1,3.3,7.4,7.4,7.4s7.3-3.3,7.3-7.4-3.3-7.4-7.3-7.4-7.4,3.3-7.4,7.4" />
    </g>
    <g id="uuid-c146d028-dc76-404b-8d5b-b0f63107265d">
      <path id="uuid-fcfa6fd8-afed-4f69-895c-c46051e33028" class="st82" d="M78.4,74.6c0,4.8,3.9,8.7,8.7,8.7s8.7-3.9,8.7-8.7-3.9-8.7-8.7-8.7-8.7,3.9-8.7,8.7" />
    </g>
    <g id="uuid-24e1a887-3038-487d-9066-23cdab8b3c87">
      <path id="uuid-e05cd8d5-161d-487e-b110-95a87cfb96c3" class="st82" d="M62.9,69.2c-5.2,0-9.4,4.2-9.4,9.4s4.2,9.4,9.4,9.4,9.4-4.2,9.4-9.4-4.2-9.4-9.4-9.4" />
    </g>
    <g id="uuid-d6ad8009-8f43-4ac2-a1e1-c4edab9b74bf">
      <path id="uuid-5d6ae8f2-fc6b-4491-8552-8e0c05a0f6ec" class="st82" d="M29.8,74.9c0,4.8,3.9,8.7,8.7,8.7s8.7-3.9,8.7-8.7-3.9-8.7-8.7-8.7-8.7,3.9-8.7,8.7" />
    </g>
    <g id="uuid-3f5163bb-f1ce-4003-a4ae-440ea005e1c9">
      <path id="uuid-e7b07aff-18dc-4636-a6c1-489a6cd52407" class="st82" d="M24.9,60.3c0-.9.4-2.8.5-3.7,3-17.9,19.2-32.1,37.5-31.8,19.9,0,36.2,16,37.8,35.6h3.9c5.1-21.4-11.3-42.9-32.4-47.2-21.8-4.9-45.2,8.1-51,29.8-1.5,5.8-1.8,11.7-.4,17.2h3.9,0Z" />
    </g>
    <g id="uuid-b9fca440-4486-4d02-9296-e6f2baf5daf3">
      <path id="uuid-73917408-1fb6-478a-85a1-2922e21b2345" class="st82" d="M90,96.6c-11.8,15.4-18.5,34.1-20,55.6,0,.9,0,1.7.3,2.5v5.8c-.4.9-.6,1.9-.6,2.9.2,16.6,3.4,34.7,9.4,53.9.7,2.2,2.5,3.9,4.7,4.5l1.1,2.2c-.3,1.5-.1,3.2.7,4.6l2.7,4.9c.3.5.6.9,1,1.4h-52.7c.4-.4.7-.9,1-1.4l2.7-4.9c.8-1.4,1-3.1.7-4.6l1.1-2.2c2.2-.6,4-2.3,4.7-4.5,6-19.2,9.1-37.4,9.4-53.9,0-1.2-.3-2.4-.9-3.4v-4.5c.5-1,.7-2.1.6-3.2-1.5-21.5-8.5-40.8-20.4-56.2l54.6.7h0Z" />
    </g>
    <g id="uuid-82209a7c-c0a9-4dd9-9299-e88447e385b8">
      <path id="uuid-9986cf70-7109-42f5-88e0-55bf74dd11e8" class="st147" d="M62.8,234.9h0" />
    </g>
    <g id="uuid-15f9cc1d-cc47-4720-8c76-3db261dc00ca">
      <path id="uuid-d140ac26-5816-42e9-9078-251939e917fe" class="st90" d="M39.5,101.3l-1.6-1.2-.2-.2c-1.1-1.7-4.3-6.2-5.3-7.5l1-1.6,14.3,3.3.7,1.3-.4.6-7.4,5.4h-1.2Z" />
    </g>
    <g id="uuid-77ef662b-057f-42cd-8d87-7ae5d0ba5e9e">
      <path id="uuid-1a686f7d-d0e0-4c96-ba74-9ba62e4896c9" class="st82" d="M33.6,89.8l-2,3.2c1,1.3,4.2,6,5.2,7.5l.5.5,1.6,1.2h2.4s7.4-5.4,7.4-5.4l.7-1h0c0,0-1.4-2.6-1.4-2.6l-14.3-3.3h0ZM33.2,91.8l14.3,3.3h0c0,0-7.4,5.4-7.4,5.4l-1.6-1.2c-1-1.4-4.2-6.2-5.3-7.6" />
    </g>
    <g id="uuid-bda1957a-ac2d-49b5-9c64-904f16b0a5c7">
      <path id="uuid-d4aa8881-ba94-432c-be81-c1d8bada675e" class="st148" d="M54.1,143.1h0l-.4-.7c-.4-3-1-5.9-1.6-8.8l1.6-1,6.6,5.1v1.6s-5,3.7-5,3.7h-1.2Z" />
    </g>
    <g id="uuid-d14d902d-ec86-44e4-bcaf-543b2a32b8ca">
      <path id="uuid-96e71de5-3ce4-4cf0-8a9f-fa5b383c8370" class="st82" d="M54.3,131.9l-3.2,2c.6,2.8,1.2,5.7,1.6,8.7l.7,1.3h2.4c0,0,5-3.6,5-3.6v-3.2s-6.6-5.1-6.6-5.1h0ZM53.1,133.5l6.6,5.1-5,3.7h0c-.4-3-1-6-1.6-8.8" />
    </g>
    <g id="uuid-9ab3b95d-789a-456b-9e89-2a15e2148709">
      <path id="uuid-1e357286-ebaa-45fa-bbc7-20a44fc469da" class="st148" d="M65.4,139.4v-1.6s6.6-5.1,6.6-5.1l1.6,1c-.6,2.8-1.2,5.8-1.6,8.8l-.4.7h-1.2s-5-3.7-5-3.7Z" />
    </g>
    <g id="uuid-ffb83ed7-ddf5-468a-a510-58e50c4243cd">
      <path id="uuid-72cd773e-91dd-4916-9fd3-306ebb33ffa8" class="st82" d="M72.6,135.5h0ZM72.6,131.5h0v1.2l-1.2-.8-6.6,5.1v3.2s5,3.7,5,3.7h2.4s.8-1.3.8-1.3c.4-3,1-5.9,1.6-8.7l-1.9-1.2s0-1.2,0-1.2ZM72.6,133.5c-.7,2.9-1.2,5.8-1.6,8.8h0l-5-3.7,6.6-5.1M72.6,133.5h0" />
    </g>
    <g id="uuid-b7e1adf7-50ed-46a6-b97e-f6dbacd1028e">
      <path id="uuid-e35a7822-3d93-4403-9fc1-e43ee00eb0ca" class="st31" d="M49.9,125.4c-1.3-4.1-2.8-8.1-4.6-11.9l.9-1.4h4.6l.6.2,5,3.8.3,1.1-1.7,5.8-.4.5-3.3,2.4-1.5-.5h0Z" />
    </g>
    <g id="uuid-e3e24c92-4c42-44d0-a417-35db4b1a613e">
      <path id="uuid-a43b5845-d02f-4189-8f2d-d69009227cae" class="st82" d="M50.9,111.1h-4.6l-1.8,2.8c1.7,3.8,3.2,7.7,4.5,11.8l3.1,1,3.3-2.4.8-1.1,1.7-5.8-.7-2.2-5-3.8-1.2-.4h0ZM50.9,113.1l5,3.8-1.7,5.8-3.3,2.4c-1.3-4.2-2.8-8.2-4.6-12h4.6Z" />
    </g>
    <g id="uuid-4e6946c7-4470-4811-8918-ebd9aba6947c">
      <path id="uuid-83179fa0-0c76-4e6f-bb24-1106d9b903f7" class="st31" d="M70.9,123.6l-.4-.5-1.7-5.8.3-1.1,5-3.8.6-.2h4.6l.9,1.4c-1.8,3.8-3.3,7.8-4.6,11.9l-1.5.5-3.3-2.4h0Z" />
    </g>
    <g id="uuid-254d7e9d-3f61-4a8a-9bff-7ee3b04083f4">
      <path id="uuid-337dd50b-8aaf-4822-b4d1-1ec55ae4437f" class="st82" d="M79.4,115.1h0ZM79.4,111.1h-4.6l-1.2.4-5,3.8-.7,2.2,1.7,5.8.8,1.1,3.3,2.4,3.1-1c1.3-4,2.8-8,4.5-11.8l-1.8-2.8h0ZM79.4,113.1c-1.8,3.9-3.3,7.9-4.6,12l-3.3-2.4-1.7-5.8,5-3.8h4.6M79.4,113.1h0" />
    </g>
    <g id="uuid-252b79eb-e596-4196-b931-b5ac22dc102d">
      <path id="uuid-a30e88aa-15c8-4532-8d91-04fc63b47f54" class="st315" d="M67.5,110.5l-1-.7-2.9-9.3v-.6l1.5-5.1,1-.7h6.1l.6.2,3.1,2.3.4.5,2.7,8.8-.3,1.1-4.4,3.3-.6.2h-6.2Z" />
    </g>
    <g id="uuid-783497e1-9a52-4e0f-87cc-3295fdb8cccc">
      <path id="uuid-33f2d293-c943-4d63-8064-a1e1a2951a1d" class="st82" d="M72.2,93.1h-6.1l-1.9,1.4-1.5,5.1v1.2l2.9,9.3,1.9,1.4h6.2l1.2-.4,4.4-3.3.7-2.2-2.7-8.8-.7-1-3.1-2.3s-1.2-.4-1.2-.4ZM72.2,95.1l3.1,2.3,2.7,8.8-4.4,3.3h-6.2l-2.9-9.3,1.5-5.1s6.1,0,6.1,0Z" />
    </g>
    <g id="uuid-6d15e735-8bca-49c7-9135-e982aced981a">
      <path id="uuid-e5cd12bf-3356-40ee-ad91-e7cc53cdf15a" class="st315" d="M52,110.5l-.6-.2-4.4-3.3-.3-1.1,2.7-8.8.4-.5,3.1-2.3.6-.2h6l1,.7,1.5,5.1v.6l-2.9,9.3-1,.7s-6.2,0-6.2,0Z" />
    </g>
    <g id="uuid-69677224-a481-499d-a4f9-6be9e0c71963">
      <path id="uuid-b41e28ae-5031-4466-a4d7-4fef794abbfb" class="st82" d="M59.5,93.1h-6l-1.2.4-3.1,2.3-.7,1-2.7,8.8.7,2.2,4.4,3.3,1.2.4h6.2l1.9-1.4,2.9-9.3v-1.2l-1.5-5.1s-1.9-1.4-1.9-1.4ZM59.5,95.1l1.5,5.1-2.9,9.3h-6.2l-4.4-3.3,2.7-8.8,3.1-2.3s6,0,6.1,0Z" />
    </g>
    <g id="uuid-173be624-46d1-423e-9d1a-22c1762c25a2">
      <path id="uuid-59271167-c9ce-4b41-ba67-a7342f0ae918" class="st61" d="M44.5,110.5l-.9-.6c-1-1.9-2-3.8-3.1-5.6l.3-1.3,4.3-3.1,1.5,1.1-1.9,6.1,2,1.6-.6,1.8h-1.7,0Z" />
    </g>
    <g id="uuid-1d24270a-8b34-48ba-9b68-f841b19ace45">
      <path id="uuid-42219249-3d5b-48aa-9f2b-2d0ad5f20777" class="st82" d="M45.7,102.8h0ZM45.7,98.8h0v1.2l-1.2-.8-4.3,3.1-.5,2.7c1.1,1.8,2.1,3.6,3.1,5.5l1.8,1.1h1.7l1.2-3.6-1.5-1.1,1.7-5.4-1.9-1.4v-1.2h0ZM45.7,100.8l-2.1,6.8,2.6,2h-1.7c-1-1.9-2-3.8-3.1-5.6l4.3-3.1M45.7,100.8h0" />
    </g>
    <g id="uuid-2cbe304f-b706-4ee4-ae2a-f79281ea29b5">
      <path id="uuid-945049eb-df7a-4072-9755-50cff33bf5e7" class="st315" d="M65.4,151.8v-1.6s4.4-3.2,4.4-3.2l1.6.9c-.1,1.2-.2,2.3-.3,3.4,0,.7,0,1.5.3,2.2v.3c0,0,0,.6,0,.6l-1.6.8-4.4-3.4h0Z" />
    </g>
    <g id="uuid-19d2b28f-835e-4233-ad51-879764b95525">
      <path id="uuid-5556a34f-12ca-4715-b7cf-bb64696719dd" class="st82" d="M70.3,149.8h0ZM70.3,145.8h0v1.1l-1.2-.7-4.3,3.2v3.2s4.3,3.4,4.3,3.4l3.2-1.6v-1.2c-.3-.6-.4-1.2-.3-1.8,0-1.1.2-2.2.3-3.4l-2-1.1v-1.1h0ZM70.3,147.8c-.1,1.1-.2,2.3-.3,3.4,0,.9,0,1.7.3,2.6v.6l-4.4-3.4,4.3-3.2M70.3,147.8h0" />
    </g>
    <g id="uuid-3a72ace0-293b-41b2-bfb7-06792dcc39af">
      <path id="uuid-7f565c99-5aa2-40da-aa29-b1d9957d8142" class="st90" d="M77.7,96l-.4-.5.7-1.3,14.3-3.3,1,1.6c-1,1.3-4.3,6-5.3,7.5l-.2.2-1.6,1.2h-1.2l-7.4-5.4h0Z" />
    </g>
    <g id="uuid-8d181794-daa3-4772-b3da-b112cc5351ca">
      <path id="uuid-63c8e586-316a-462b-8b82-ce4bbcc1e26c" class="st82" d="M92.6,93.8h0ZM92.6,89.8h0v.8l-.4-.7-14.3,3.3-1.5,2.5h0c0,0,.8,1.1.8,1.1l7.4,5.4h2.4s1.6-1.2,1.6-1.2l.5-.5c1-1.5,4.3-6.2,5.3-7.5l-1.6-2.5v-.8h0ZM92.6,91.8c-1.1,1.4-4.4,6.1-5.3,7.6l-1.6,1.2-7.4-5.4h0c0,0,14.3-3.4,14.3-3.4M92.6,91.8h0" />
    </g>
    <g id="uuid-51a73979-8ba1-47db-976a-4623a4ad0b54">
      <path id="uuid-397a56cb-09ce-4bca-8993-afc8cea3c383" class="st148" d="M62.8,117.8l-3.6,2.6-1.5-1.1,1-3.4-2.6-2,.6-1.8h3.3l2-6.4h1.9l2,6.4h3.3l.6,1.8-2.6,2,1,3.4-1.5,1.1-3.6-2.6h0Z" />
    </g>
    <g id="uuid-9be35ca9-8a63-4884-8fc4-1aa3e04e4d54">
      <path id="uuid-86c88ce7-849d-4481-b532-f623d0a4857d" class="st82" d="M60.9,105.4l-1.8,5.7h-2.5l-1.2,3.6,2.1,1.6-.8,2.7,3.1,2.2,3-2.2,3,2.2,3.1-2.2-.8-2.7,2.1-1.6-1.2-3.6h-2.5l-1.8-5.7h-3.8ZM69,113.1h0M62.8,106l2.2,7.1h4l-3.2,2.4,1.2,4-4.2-3-4.2,3,1.2-4-3.2-2.4h4l2.2-7.1h0Z" />
    </g>
    <g id="uuid-ec8c8fe7-5451-414a-84ac-9c0d8906d671">
      <path id="uuid-4559be91-ddd5-4308-930b-0dfcc0febe0f" class="st61" d="M79.5,110.5l-.6-1.8,2.1-1.6-1.9-6.1,1.5-1.1,4.3,3.1.3,1.3c-1.1,1.8-2.1,3.7-3.1,5.6l-.9.6s-1.7,0-1.7,0Z" />
    </g>
    <g id="uuid-fc313bfd-da5b-4de6-8f3a-ea12383fdc74">
      <path id="uuid-84c0c416-95e1-4147-85a9-1e89c13fd52c" class="st82" d="M81.2,99.2l-3.1,2.2,1.7,5.4-1.5,1.1,1.2,3.6h1.7l1.8-1.1c1-1.9,2-3.7,3.1-5.5l-.5-2.7-4.3-3.1h0ZM80,100.8l4.3,3.1c-1.1,1.8-2.1,3.7-3.1,5.6h-1.7l2.6-2s-2.1-6.8-2.1-6.8Z" />
    </g>
    <g id="uuid-a559d590-9272-43e6-88fe-7c04218317d0">
      <path id="uuid-9b5592ae-7e01-4def-ac88-bd9a3ac1602d" class="st90" d="M66.3,198.4l-2.6-8.7v-.6l2.9-9.3,1-.7h3.5l1,.9c.6,4.4,1.3,9,2.2,13.6l-.4,1-6,4.4-1.6-.5h0Z" />
    </g>
    <g id="uuid-fa9b7c18-f9ec-43ff-bb27-0deb6f885034">
      <path id="uuid-bd7c9b44-98d9-40ac-873c-b14562d8c6f8" class="st82" d="M71,178.1h-3.5l-1.9,1.4-2.9,9.3v1.2l2.6,8.7,3.1,1,6-4.4.8-2c-.9-4.6-1.7-9.1-2.2-13.5l-2-1.8ZM71,180.1c.6,4.5,1.3,9,2.2,13.7l-6,4.4-2.6-8.7,2.9-9.3h3.5Z" />
    </g>
    <g id="uuid-f48d1f9b-aeb8-4002-8bbe-cf835b60bace">
      <path id="uuid-1c8c3c19-992b-4050-b294-7745664dc286" class="st61" d="M74.3,211.9l-1.4-1.1-.3-1.1.7-2.1,1-.7h2.4l1,.7v.4c.2.4.3.8.5,1.2l-.4,1.1-2.1,1.6h-1.2Z" />
    </g>
    <g id="uuid-b65d1227-181d-4e0c-b396-5fa4a19f58fd">
      <path id="uuid-475629d8-de7c-4367-addb-3dbaa932ea3d" class="st82" d="M76.5,205.8h-2.4l-1.9,1.4-.7,2.1.7,2.2,1.4,1.1h2.4l2.1-1.6.7-2.1c-.1-.4-.2-.8-.3-1.2v-.4c-.1,0-2-1.5-2-1.5h0ZM76.5,207.8c.2.6.3,1.1.4,1.7l-2.1,1.6-1.4-1.1.7-2.1h2.4,0Z" />
    </g>
    <g id="uuid-3248a896-f64d-4855-b246-800451da2196">
      <path id="uuid-1ee34e20-ae10-465c-ab0d-da9fc8bf1953" class="st61" d="M62.2,149.4l-4.9-3.8v-1.6l4.9-3.8h1.2l4.9,3.8v1.6l-4.9,3.8h-1.2Z" />
    </g>
    <g id="uuid-0fa764d1-a42b-49a6-b772-6758a0ff4801">
      <path id="uuid-2d9a0cc1-a777-44bf-b52d-a45600685b39" class="st82" d="M61.6,139.4l-4.9,3.8v3.2l4.9,3.8h2.5l4.9-3.8v-3.2l-4.9-3.8h-2.5ZM62.8,141l4.9,3.8-4.9,3.8-4.9-3.8s4.9-3.8,4.9-3.8Z" />
    </g>
    <g id="uuid-8a808b53-e9eb-40ba-8ac5-749e43855bc8">
      <path id="uuid-bb81d013-ae3e-4107-8b36-28440ad675cf" class="st90" d="M62.2,137.1l-1.9-1.4h0l-5.6-4.1-.4-1.1,1.7-5.8.4-.5,5.8-4.1h1.2l5.8,4.1.4.5,1.7,5.8-.4,1.1-5.6,4.1h0l-1.9,1.4h-1.2,0Z" />
    </g>
    <g id="uuid-a1b879ef-2ead-4328-a129-f3aa6fd1380a">
      <path id="uuid-db7f1312-588b-4ca2-940d-753770da1755" class="st82" d="M64,119.2h-2.3l-5.8,4.1-.8,1.1-1.7,5.8.7,2.2,5.6,4.1h0l1.9,1.4h2.4l1.9-1.4h0l5.6-4.1.7-2.2-1.7-5.8-.8-1.1-5.8-4.1h0ZM62.8,120.9l5.8,4.1,1.7,5.8-5.6,4.1h0l-1.9,1.4-1.9-1.4h0l-5.6-4.1,1.7-5.8,5.8-4.1h0Z" />
    </g>
    <g id="uuid-ab2d1f66-65f7-4ef8-8099-2ca82188a323">
      <path id="uuid-10853a1e-f82a-49c3-9531-8afd59dde70f" class="st148" d="M82.2,235.9l-.6-.2-3.9-2.9-.4-.5-2.9-9.3.9-1.3h8.9l.6.2.5.4.3.3.4.8v.7c-.2,1.4,0,2.8.7,4l2.7,5c.1.2.3.5.5.7l-.2,1.4-.8.5-.6.2h-6.1Z" />
    </g>
    <g id="uuid-743decdb-704b-4488-a0a2-481529b44517">
      <path id="uuid-cc5a3abd-34ac-4a74-829f-8a0373b2c3e2" class="st82" d="M84.2,220.7h-8.9l-1.9,2.6,2.9,9.3.7,1,3.9,2.9,1.2.4h6.1l1.1-.3.8-.5.5-2.9c-.2-.2-.3-.4-.4-.6l-2.7-5c-.5-1-.7-2.2-.5-3.3l-.2-1.3-.4-.8-.6-.7-.5-.4-1.2-.4ZM84.2,222.7l.5.4.4.8c-.3,1.6-.1,3.2.7,4.6l2.7,5c.2.3.3.6.5.8l-.8.5h-6.1l-3.9-2.9-2.9-9.3h8.9,0Z" />
    </g>
    <g id="uuid-8f54d00a-6369-4eba-b91f-e4eb6b82b190">
      <path id="uuid-479b184a-f598-4573-9bec-296a785905d2" class="st61" d="M74.2,220.1l-.9-.7-.8-2.5.3-1.1,1.5-1.1h1.2l4.7,3.7-.6,1.8h-5.5Z" />
    </g>
    <g id="uuid-3faede81-17fc-4f46-8d93-ad1ba34e7fc1">
      <path id="uuid-a470b97d-7e34-4500-9ede-62734726f656" class="st82" d="M73.6,213.9l-1.5,1.1-.7,2.2.8,2.5,1.9,1.4h5.4l1.2-3.6-4.7-3.6h-2.4,0ZM74.8,215.5l4.7,3.6h-5.4l-.8-2.5s1.5-1.1,1.5-1.1Z" />
    </g>
    <g id="uuid-fbd374aa-8e90-4b25-af71-ad542846cfb5">
      <path id="uuid-1573f95d-eedf-427b-85d5-51e04e8f1103" class="st90" d="M51.9,194.6l-.4-1c.9-4.6,1.7-9.2,2.2-13.6l1-.9h3.5l1,.7,2.9,9.3v.6l-2.6,8.7-1.5.5-6-4.4h0Z" />
    </g>
    <g id="uuid-2974a952-74b8-477b-a9c2-e77cc7b264d8">
      <path id="uuid-b4fc15a8-ca41-44e9-bfd8-6d05067d669d" class="st82" d="M58.2,178.1h-3.5l-2,1.8c-.5,4.4-1.3,9-2.2,13.5l.8,2,6,4.4,3.1-1,2.6-8.7v-1.2l-2.9-9.3-1.9-1.4h0ZM58.2,180.1l2.9,9.3-2.6,8.7-6-4.4c.9-4.6,1.7-9.2,2.2-13.7,0,0,3.5,0,3.5,0Z" />
    </g>
    <g id="uuid-af2254bf-ad40-423b-8b64-bff447a15b87">
      <path id="uuid-018571d4-86c3-4b7c-af96-58bc180f5492" class="st315" d="M61.9,183.9l-2-6.4h-3.3l-.6-1.8,2.6-2-1-3.4,1.5-1.1,3.6,2.6,3.6-2.6,1.5,1.1-1,3.4,2.6,2-.6,1.8h-3.3l-2,6.4h-1.9,0Z" />
    </g>
    <g id="uuid-886ec9e9-471c-4582-a30d-10e21214f2af">
      <path id="uuid-1be4ba4f-a8b0-4437-9fc7-1a23bdc4f271" class="st82" d="M67,172.1h0ZM67,168.1h0v1.2l-1.2-.8-3,2.2-3-2.2-3.1,2.2.8,2.7-2.1,1.6,1.2,3.6h2.5l1.8,5.7h3.8l1.8-5.7h2.5l1.2-3.6-2.1-1.6.8-2.7-1.9-1.4v-1.2h0ZM67,170.1l-1.2,4,3.2,2.4h-4l-2.2,7.1-2.2-7.1h-4l3.2-2.4-1.2-4,4.2,3,4.2-3M67,170.1h0" />
    </g>
    <g id="uuid-c25ab3d7-e90d-43a9-afab-4dce50687914">
      <path id="uuid-1c0a9c4b-89e0-44b0-ae87-a5ec0937da19" class="st315" d="M62.8,221.9l-2.3,1.7-1.5-.5-.9-3h-2.9l-1-1.3,1-3.2-2.1-1.6v-1.6l2-1.6-.9-2.8,1-1.3h3.2l1-3.3,1.5-.5,2,1.4,2-1.4,1.6.5,1,3.3h3.2l1,1.3-.9,2.8,2,1.6v1.6l-2.1,1.6,1,3.2-.9,1.3h-2.9l-.9,3-1.6.5-2.3-1.7h0Z" />
    </g>
    <g id="uuid-8ce29c8a-7289-43df-a6e0-855a017931e6">
      <path id="uuid-c07b96f8-1b99-4a40-acb7-fe7a9c405f4c" class="st82" d="M64.2,202.2l-1.4,1-1.4-1-3.1,1-.8,2.6h-2.4l-1.9,2.6.7,2.1-1.5,1.1v3.2l1.5,1.2-.8,2.5,1.9,2.6h2.2l.7,2.3,3.1,1,1.7-1.3,1.7,1.3,3.1-1,.7-2.3h2.2l1.9-2.6-.8-2.5,1.5-1.2v-3.2l-1.5-1.1.7-2.1-1.9-2.6h-2.4l-.8-2.6-3.1-1h0ZM70.5,207.8h0M65.4,203.8l1.2,4h3.9l-1.1,3.5,2.6,2-2.7,2,1.2,3.9h-3.7l-1.2,3.7-2.9-2.2-2.9,2.2-1.2-3.7h-3.7l1.2-3.9-2.7-2,2.6-2-1.1-3.5h3.9l1.2-4,2.6,1.9,2.6-1.9h0Z" />
    </g>
    <g id="uuid-33204f05-9e75-4f1e-961e-2724031568db">
      <path id="uuid-b7accf69-f6c6-4be9-bc69-5db6230f584e" class="st61" d="M69.1,205.3l-1-.7-.8-2.6.4-1.1,5.3-3.8,1.5,1.1-2,6.4-1,.7h-2.5,0Z" />
    </g>
    <g id="uuid-661f90ff-5d48-4723-b568-2472fdfe6e01">
      <path id="uuid-e8e82dc9-d040-453c-a63f-8cc1ecef2b13" class="st82" d="M73.6,199.9h0ZM73.6,195.9h0v1.2l-1.2-.8-5.3,3.8-.7,2.2.8,2.6,1.9,1.4h2.5l1.9-1.4,2-6.4-1.9-1.4v-1.2h0ZM73.6,197.9l-2,6.4h-2.5l-.8-2.6,5.3-3.8M73.6,197.9h0" />
    </g>
    <g id="uuid-5ed80ec6-390d-425f-9797-0ecc26acde20">
      <path id="uuid-16eb29c7-0d14-4e41-842c-54bb64655442" class="st148" d="M50.1,235.9l-1-1.3.2-.7.4-.5,7.8-5.7,1.5.5,2,6.4-1,1.3h-10Z" />
    </g>
    <g id="uuid-cd153898-3452-4deb-ad0e-441a7ec2a515">
      <path id="uuid-302e9fbd-61ca-4181-9854-ca0ff0f07434" class="st82" d="M56.9,226.9l-7.8,5.7-.7,1-.2.7,1.9,2.6h10l1.9-2.6-2-6.4-3.1-1h0ZM58.1,228.5l2,6.4h-10l.2-.7s7.8-5.7,7.8-5.7Z" />
    </g>
    <g id="uuid-5e2104d6-963f-4642-a429-5d6df41084e3">
      <path id="uuid-3dd8ef86-544e-4d3e-99d3-d713ac462e11" class="st315" d="M54,154.6h0c0-.1,0-.5,0-.5.4-.9.6-1.8.5-2.8,0-1.1-.2-2.2-.3-3.4l1.6-.9,4.3,3.2v1.6s-4.6,3.6-4.6,3.6l-1.6-.8h0Z" />
    </g>
    <g id="uuid-8dd8760d-1a4c-4532-95f8-6b0b21f3aa52">
      <path id="uuid-c8ec0440-0e6a-41de-8035-5dc67d172395" class="st82" d="M56.5,146.2l-3.2,1.8c.1,1.2.2,2.3.3,3.4,0,.8,0,1.6-.4,2.3l-.2.8h0c0,.1,3.2,1.7,3.2,1.7l4.7-3.6v-3.2s-4.4-3.2-4.4-3.2ZM55.3,147.8l4.3,3.2-4.7,3.6h0c.5-1.1.7-2.2.6-3.4,0-1.2-.2-2.3-.3-3.4" />
    </g>
    <g id="uuid-2d15d0ee-4c48-4980-a002-709af060fc18">
      <path id="uuid-acdc2b72-cc6e-4c1c-8b8c-c6645786168a" class="st61" d="M51.2,228.2l1.8-5.8,1-.7h2.3l1,.7.7,2.3-.4,1.1-4.9,3.6-1.5-1.1h0Z" />
    </g>
    <g id="uuid-43725091-f48e-4b78-bcea-4fbfd859c67c">
      <path id="uuid-64dcfed8-824f-4c6b-90cd-8e7633ec55ed" class="st82" d="M56.3,220.7h-2.3l-1.9,1.4-1.8,5.8,3.1,2.2,4.9-3.6.7-2.2-.7-2.3-1.9-1.4h0ZM56.3,222.7l.7,2.3-4.9,3.6,1.8-5.8h2.3Z" />
    </g>
    <g id="uuid-972bf054-d2eb-46ac-9219-177c9406031d">
      <path id="uuid-b7b41707-24aa-437b-848d-c0c2829351fb" class="st31" d="M62.3,169.6l-5.8-4.1-.4-.5-1.7-5.8.4-1.1,5.6-4.1h0l1.9-1.4h1.2l1.9,1.4h0l5.6,4.1.4,1.1-1.7,5.8-.4.5-5.8,4.1h-1.2Z" />
    </g>
    <g id="uuid-07905add-abbc-404f-ba29-3ddd028d3a97">
      <path id="uuid-44f12d14-1fb9-4bff-ac3a-92b0b3028f16" class="st82" d="M64,151.8h-2.4l-1.9,1.4h0l-5.6,4.1-.7,2.2,1.7,5.8.8,1.1,5.8,4.1h2.3l5.8-4.1.8-1.1,1.7-5.8-.7-2.2-5.6-4.1h0l-1.9-1.4h0ZM62.8,153.4l1.9,1.4h0l5.6,4.1-1.7,5.8-5.8,4.1-5.8-4.1-1.7-5.8,5.6-4.1h0l1.9-1.4h0Z" />
    </g>
    <g id="uuid-6d6178de-366b-4d81-be4c-13ed5019906d">
      <path id="uuid-cfe8736c-0cf9-4f3a-9fc5-7858b825c910" class="st148" d="M65.6,235.9l-1-1.3,2-6.4,1.6-.5,7.8,5.7.4.5.2.7-.9,1.3h-10Z" />
    </g>
    <g id="uuid-3d7bc342-fe4a-4e97-873f-ffbf76f0af40">
      <path id="uuid-c0e66969-45b0-4eb5-b4ac-b141e54fa7f8" class="st82" d="M68.8,226.9l-3.1,1-2,6.4,1.9,2.6h10l1.9-2.6-.2-.7-.7-1-7.8-5.7h0ZM67.6,228.5l7.8,5.7.2.7h-10s2-6.4,2-6.4Z" />
    </g>
    <g id="uuid-a1a10fd7-1fc1-4000-8bb1-8e51d77b3944">
      <path id="uuid-94f7b2af-c584-4bd2-917c-4cb5d677caee" class="st61" d="M46.1,220.1l-.6-1.8,4.7-3.6h1.2l1.5,1.1.3,1.1-.8,2.5-1,.7h-5.5Z" />
    </g>
    <g id="uuid-b4928470-b706-42b3-9b92-da8b9e45d620">
      <path id="uuid-9a6747cd-343e-4e82-9995-cc7028ad5ae9" class="st82" d="M52,213.9h-2.4l-4.7,3.7,1.2,3.6h5.4l1.9-1.4.8-2.5-.7-2.2-1.5-1.1h0ZM50.8,215.5l1.5,1.1-.8,2.5h-5.4l4.7-3.6h0Z" />
    </g>
    <g id="uuid-c3037aa4-df6b-4d6c-9086-aabcc980aa63">
      <path id="uuid-b86bc0aa-dd8a-4174-a6d4-5e39b72e9d23" class="st148" d="M37.5,235.9l-.5-.2-.8-.5-.2-1.4c.2-.2.3-.5.5-.7l2.7-5c.7-1.2.9-2.6.6-4v-.7c0,0,.5-.8.5-.8l.3-.3.5-.4.6-.2h8.9l1,1.3-2.9,9.3-.4.5-4,2.9-.6.2h-6.1Z" />
    </g>
    <g id="uuid-7130e506-2676-4a2d-a1ff-cfa28a5606fd">
      <path id="uuid-01dda330-c070-4835-b4c6-41010cf19316" class="st82" d="M50.4,224.7h0ZM50.4,220.7h-8.9l-1.2.4-.5.4-.6.7-.4.8-.2,1.3c.2,1.1,0,2.3-.5,3.3l-2.7,5c-.1.2-.2.4-.4.6l.5,2.9.8.5,1.1.3h6.1l1.2-.4,4-2.9.7-1,2.9-9.3-1.9-2.6h0ZM50.4,222.7l-2.9,9.3-4,2.9h-6.1l-.8-.5c.2-.3.4-.6.5-.8l2.7-5c.8-1.4,1-3.1.7-4.6l.4-.8.5-.4h8.9M50.4,222.7h0" />
    </g>
    <g id="uuid-96c2c1ee-615d-4412-8633-9fb9ecd55c42">
      <path id="uuid-53f556bc-f5a6-45cd-a43b-9da71399fcde" class="st61" d="M48.1,210.3l-.4-1.1c.1-.4.2-.8.3-1.2v-.4c.1,0,1.1-.7,1.1-.7h2.5l1,.7.7,2.1-.3,1.1-1.5,1.1h-1.2l-2.1-1.6h0Z" />
    </g>
    <g id="uuid-8c0c16ec-c4f8-4b2f-a8bc-f4a51275dd46">
      <path id="uuid-67326a7d-a919-4250-a55f-7c894719def0" class="st82" d="M51.6,205.8h-2.5l-1.9,1.5v.4c-.2.4-.3.8-.5,1.2l.7,2.1,2.1,1.6h2.4l1.5-1.1.7-2.2-.7-2.1-1.9-1.4h0ZM51.6,207.8l.7,2.1-1.5,1.1-2.1-1.6c.2-.6.3-1.1.5-1.7h2.5,0Z" />
    </g>
    <g id="uuid-1697c51a-5710-4af7-b9ce-5e94898b0892">
      <path id="uuid-5012190b-fce3-4696-9d36-031c92da4889" class="st61" d="M54.1,205.3l-1-.7-2-6.4,1.5-1.1,5.3,3.8.4,1.1-.8,2.6-1,.7h-2.5,0Z" />
    </g>
    <g id="uuid-51d271f2-9d6d-4a28-a7e2-8adbe47f7d57">
      <path id="uuid-53ec3dd2-8aff-4ef8-b29b-2bddd5615bdc" class="st82" d="M53.3,196.2l-3.1,2.2,2,6.4,1.9,1.4h2.5l1.9-1.4.8-2.6-.7-2.2s-5.3-3.8-5.3-3.8ZM52.1,197.9l5.3,3.8-.8,2.6h-2.5l-2-6.4h0Z" />
    </g>
    <g id="uuid-1219fc49-2dd6-448b-9489-5660cec3b406">
      <path id="uuid-94117a38-673b-4462-a562-444842a93d7c" class="st61" d="M60.8,201.1l-.4-1.1,1.5-4.9h1.9l1.5,4.9-.4,1.1-1.5,1.1h-1.2l-1.5-1.1h0Z" />
    </g>
    <g id="uuid-b07e6cf9-76a6-43d6-8082-61c3addfe7c5">
      <path id="uuid-f5551254-dea0-44f7-84a7-a6a1e988231e" class="st82" d="M60.9,194.8l-1.5,4.9.7,2.2,1.5,1.1h2.4l1.5-1.1.7-2.2-1.5-4.9h-3.8ZM62.8,195.4l1.5,4.9-1.5,1.1-1.5-1.1,1.5-4.9Z" />
    </g>
    <g id="uuid-437ab44d-fac9-4055-8ce9-313495a9039a">
      <path id="uuid-8c5f1cac-5057-4fba-bfca-9ad4348b9d28" class="st61" d="M68.1,225.8l-.4-1.1.7-2.3,1-.7h2.3l.9.7,1.8,5.8-1.6,1.1-4.9-3.6h0Z" />
    </g>
    <g id="uuid-f9849460-f17f-438f-9507-9bd890451119">
      <path id="uuid-528582c7-7278-4825-961e-8e480dcc17e8" class="st82" d="M71.7,220.7h-2.3l-1.9,1.4-.7,2.3.7,2.2,4.9,3.6,3.1-2.2-1.8-5.8-1.9-1.4h0ZM71.7,222.7l1.8,5.8-4.9-3.6.7-2.3h2.3Z" />
    </g>
    <g id="uuid-43502696-da31-4282-a822-54a79e06760e">
      <path id="uuid-b8b20307-e7ca-4cda-9b9f-4967b3e878ba" class="st61" d="M61.9,232.4l-1.8-5.8.4-1.1,1.8-1.3h1.2l1.8,1.3.4,1.1-1.8,5.8h-1.9Z" />
    </g>
    <g id="uuid-2d5bb58e-8cd0-470c-8443-8e8ca19b588d">
      <path id="uuid-22f5f7fe-d3db-46dd-9770-3acf46ce4b24" class="st82" d="M64,223.4h-2.4l-1.8,1.3-.7,2.2,1.8,5.8h3.8l1.8-5.8-.7-2.2-1.8-1.3ZM62.8,225l1.8,1.3-1.8,5.8-1.8-5.8,1.8-1.3Z" />
    </g>
    </g></svg>